# xmcd
#
# Track frame offsets:
#	150
#	14267
#	31659
#	44606
#	59681
#	75114
#	91956
#	108100
#	121922
#	139480
#	159269
#	175371
#	190746
#
# Disc length: 2744 seconds
# Revision: 0
# Processed by: cddbd v1.5.2PL0 Copyright (c) Steve Scherf et al.
# Submitted via: dBpowerAMP V12.0
#
DISCID=9d0ab60d
DTITLE=Graham Rodger - Dust and Leather
DYEAR=2014
DGENRE=Country
TTITLE0=Get These Big Wheels Rolling
TTITLE1=Scrub Bull Hunters
TTITLE2=Branding Fire Smoke
TTITLE3=Dust and Leather
TTITLE4=Take Me Home Geordie Dear
TTITLE5=The Three Letters
TTITLE6=Devil's child
TTITLE7=A Pair Of Faded Blue Jeans
TTITLE8=He's Droving Once Again
TTITLE9=The Blacksoil Plains Of The Outback
TTITLE10=Ghost Of The Yaraka Line
TTITLE11=A Truckie's Last Letter
TTITLE12=Reach Out
EXTD=
EXTT0=
EXTT1=
EXTT2=
EXTT3=
EXTT4=
EXTT5=
EXTT6=
EXTT7=
EXTT8=
EXTT9=
EXTT10=
EXTT11=
EXTT12=
PLAYORDER=
